<svg id="visual" viewBox="0 0 960 540" width="960" height="540" xmlns="http://www.w3.org/2000/svg" xmlns:xlink="http://www.w3.org/1999/xlink" version="1.1"><path d="M0 422L22.8 415.3C45.7 408.7 91.3 395.3 137 391.2C182.7 387 228.3 392 274 406.2C319.7 420.3 365.3 443.7 411.2 435.8C457 428 503 389 548.8 380.3C594.7 371.7 640.3 393.3 686 399.8C731.7 406.3 777.3 397.7 823 398C868.7 398.3 914.3 407.7 937.2 412.3L960 417L960 541L937.2 541C914.3 541 868.7 541 823 541C777.3 541 731.7 541 686 541C640.3 541 594.7 541 548.8 541C503 541 457 541 411.2 541C365.3 541 319.7 541 274 541C228.3 541 182.7 541 137 541C91.3 541 45.7 541 22.8 541L0 541Z" fill="#fff" stroke-linecap="round" stroke-linejoin="miter"></path></svg>